PathFileType	4	(X/Y/Z)	OpenSim_Sub04_CSBaseline_Magnet.trc
DataRate	CameraRate	NumFrames	NumMarkers	Units	OrigDataRate	OrigDataStartFrame	OrigNumFrames
100	100	30	8	m	100	1011	8083
Frame#	Time	torso_imu_offset_imu	pelvis_imu_offset_imu	tibia_r_imu_offset_imu	femur_r_imu_offset_imu	tibia_l_imu_offset_imu	femur_l_imu_offset_imu	toes_r_imu_offset_imu	toes_l_imu_offset_imu
				X1	Y1	Z1	X2	Y2	Z2	X3	Y3	Z3	X4	Y4	Z4	X5	Y5	Z5	X6	Y6	Z6	X7	Y7	Z7	X8		Y8	Z8	

1011	10.10000000	0.91190405	0.16821212	-0.16497323	-0.62341821	0.15829681	-0.64756075	-0.07590757	-0.79353009	-0.06549867	-0.79561782	-0.25581318	0.09184386	-0.60307727	0.45254555	0.27245489	-0.53812855	-0.18620706	0.29695483	-0.65838339	-0.36727753	0.29049295	-0.67325632	-0.28131608	-0.32630069
1012	10.11000000	0.91010384	0.17242487	-0.16607521	-0.62204189	0.15962504	-0.65253200	-0.09476238	-0.79063356	-0.06419470	-0.79847413	-0.23700198	0.08956924	-0.59849756	0.46242534	0.27394862	-0.54095560	-0.17997392	0.30299562	-0.67621825	-0.35181934	0.25842752	-0.66944517	-0.28894738	-0.32261718
1013	10.12000000	0.90930735	0.18156173	-0.16721455	-0.62532898	0.16398464	-0.64914866	-0.11396424	-0.79292494	-0.06375510	-0.80625170	-0.21983528	0.08016914	-0.59374478	0.46998827	0.27248522	-0.53158684	-0.17476713	0.30191390	-0.69161428	-0.34362650	0.22248337	-0.66541918	-0.29220533	-0.32087381
1014	10.13000000	0.90951920	0.18600808	-0.16558336	-0.62649667	0.16465151	-0.64895161	-0.13770135	-0.78645260	-0.06212853	-0.81252632	-0.20662546	0.07784704	-0.59374081	0.47794861	0.26707819	-0.52969189	-0.17326855	0.30491221	-0.70315292	-0.33877201	0.18897874	-0.67313190	-0.29826562	-0.31509971
1015	10.14000000	0.90698821	0.19258595	-0.16188718	-0.62597518	0.16468210	-0.64333288	-0.16680471	-0.77768782	-0.06066623	-0.81225679	-0.19676145	0.07785252	-0.58869716	0.48756859	0.26802944	-0.52631676	-0.16302668	0.30959094	-0.72457323	-0.32596763	0.15340426	-0.67487612	-0.30155693	-0.30733991
1016	10.15000000	0.90916777	0.19295364	-0.15703891	-0.62805346	0.16280121	-0.65541581	-0.19677581	-0.76949531	-0.05418613	-0.82042161	-0.17936684	0.07702505	-0.58298384	0.49059835	0.26654668	-0.52604762	-0.15903558	0.31268143	-0.73020991	-0.31068411	0.12006507	-0.67341096	-0.30338115	-0.30821277
1017	10.16000000	0.90439444	0.20007777	-0.15656839	-0.62745044	0.16198076	-0.65419476	-0.22287552	-0.76122414	-0.05447202	-0.82199072	-0.16432000	0.07534950	-0.58473941	0.49644934	0.26389556	-0.52213396	-0.15602834	0.31070489	-0.73485573	-0.30067865	0.07941310	-0.66485518	-0.30713744	-0.30802313
1018	10.17000000	0.91222402	0.20572390	-0.15685985	-0.61882186	0.16566705	-0.65271757	-0.24904427	-0.75169590	-0.04649998	-0.82755760	-0.16223419	0.06784709	-0.58403933	0.50141972	0.26136776	-0.52205805	-0.14610381	0.31158182	-0.74346434	-0.28134196	0.04158549	-0.67728460	-0.31403701	-0.29864141
1019	10.18000000	0.90415182	0.20733981	-0.15871677	-0.61914616	0.17047646	-0.65313723	-0.28546035	-0.73763749	-0.04792008	-0.82888806	-0.14946848	0.06918187	-0.57750033	0.50576390	0.26048023	-0.51854842	-0.13619000	0.31649391	-0.75292567	-0.26772044	0.00954493	-0.66864731	-0.31621967	-0.29959010
1020	10.19000000	0.90300659	0.21490207	-0.16077887	-0.62220434	0.17070835	-0.65536114	-0.32423710	-0.72201234	-0.04276188	-0.83274292	-0.14064868	0.06420608	-0.57470575	0.50980217	0.26042547	-0.51774965	-0.13313322	0.31630589	-0.75593653	-0.25047674	-0.03585564	-0.67619964	-0.32362021	-0.29465502
1021	10.20000000	0.90589780	0.22045716	-0.15011561	-0.61898423	0.17317031	-0.65365347	-0.35927110	-0.69907604	-0.04611408	-0.83157681	-0.13973957	0.07217772	-0.57158506	0.51567112	0.25851126	-0.51629331	-0.13083996	0.32299198	-0.76102338	-0.23320715	-0.07095598	-0.67513481	-0.31810826	-0.28898455
1022	10.21000000	0.90609469	0.22139749	-0.15069373	-0.61530985	0.16919079	-0.65479817	-0.39289203	-0.68395625	-0.04935660	-0.83328833	-0.12796287	0.06855684	-0.56224183	0.51002489	0.25431488	-0.51244598	-0.12983334	0.31803653	-0.75630251	-0.21856513	-0.11174349	-0.67567847	-0.32279794	-0.28839454
1023	10.22000000	0.90474388	0.21847486	-0.14535257	-0.62014098	0.17199427	-0.65778383	-0.42897224	-0.66093622	-0.05930690	-0.83256610	-0.12550310	0.07569939	-0.56133489	0.52772457	0.25174389	-0.50773664	-0.11734572	0.31953503	-0.75514084	-0.20270631	-0.14661097	-0.67388173	-0.32224457	-0.28891644
1024	10.23000000	0.90020052	0.22519688	-0.14620843	-0.61298338	0.17495414	-0.65764346	-0.46208712	-0.63549561	-0.07391827	-0.82935278	-0.12598635	0.07610953	-0.55954754	0.52773544	0.25855554	-0.50778288	-0.11354603	0.32544965	-0.75516638	-0.18641286	-0.18477804	-0.67774090	-0.32482867	-0.28513397
1025	10.24000000	0.89885852	0.23116604	-0.14712749	-0.61288296	0.17412016	-0.66175198	-0.49254719	-0.60748385	-0.08658990	-0.83344690	-0.12741343	0.07470366	-0.55812258	0.52911676	0.25568055	-0.50403246	-0.10504140	0.32358199	-0.74516289	-0.18190528	-0.22526366	-0.67689623	-0.33025100	-0.27961504
1026	10.25000000	0.90301133	0.23125519	-0.14709810	-0.61225037	0.16720333	-0.66415662	-0.52259140	-0.57618447	-0.09713330	-0.82999589	-0.13073681	0.07751372	-0.54958360	0.53741555	0.25415436	-0.50391480	-0.09275548	0.32604866	-0.74065737	-0.16512642	-0.26274845	-0.68980340	-0.32904088	-0.26640330
1027	10.26000000	0.90340857	0.23457338	-0.14531817	-0.60868678	0.17063738	-0.66898590	-0.55473677	-0.54666863	-0.10610933	-0.83109966	-0.13928220	0.07702722	-0.54882495	0.54914025	0.25197272	-0.50069628	-0.08947138	0.33395091	-0.73063275	-0.15459287	-0.30378017	-0.68594846	-0.32955618	-0.27639233
1028	10.27000000	0.90570562	0.23807886	-0.14507714	-0.61479996	0.16629174	-0.66733106	-0.58606474	-0.51593908	-0.12311397	-0.82798138	-0.14024227	0.08710277	-0.54494819	0.55045498	0.24802543	-0.49573024	-0.08560854	0.32887867	-0.71345265	-0.14316740	-0.34460255	-0.68761413	-0.33519327	-0.26616846
1029	10.28000000	0.90029714	0.23384206	-0.14338351	-0.61193771	0.16057396	-0.66764099	-0.60985073	-0.48306055	-0.12774463	-0.82679555	-0.14621843	0.09251330	-0.54454266	0.55554904	0.24189397	-0.49565722	-0.08165117	0.32866130	-0.70403146	-0.13034927	-0.37909583	-0.69232580	-0.32960517	-0.26634617
1030	10.29000000	0.89892719	0.23666267	-0.14094135	-0.61251635	0.16093845	-0.65827846	-0.62930212	-0.44738161	-0.13976134	-0.82545961	-0.15920602	0.08829650	-0.53972968	0.56113981	0.24778757	-0.49171531	-0.07274303	0.33403941	-0.68042707	-0.11770830	-0.41069009	-0.70139154	-0.33038509	-0.25461398
1031	10.30000000	0.89893995	0.23981130	-0.14048730	-0.61497428	0.15485578	-0.66450603	-0.65250991	-0.41704612	-0.13835816	-0.82005518	-0.16459736	0.09107147	-0.53144633	0.56261498	0.24334708	-0.49194409	-0.07058640	0.33179812	-0.66780043	-0.10340711	-0.44011428	-0.70137533	-0.32890244	-0.25417595
1032	10.31000000	0.89940970	0.23820513	-0.14292519	-0.61564503	0.15477172	-0.66740340	-0.66032975	-0.38790112	-0.14528980	-0.82536154	-0.17005656	0.09722175	-0.53564568	0.57144568	0.23831588	-0.48448073	-0.05903940	0.33586638	-0.65334646	-0.08827867	-0.46995075	-0.69928933	-0.33066127	-0.23340560
1033	10.32000000	0.89690257	0.23743849	-0.13916436	-0.61258420	0.14505116	-0.66233201	-0.68281926	-0.36011066	-0.15614712	-0.82191443	-0.17631363	0.09515586	-0.52895285	0.57166826	0.24381428	-0.48115179	-0.05073855	0.33198365	-0.63634104	-0.07734031	-0.49272820	-0.70769612	-0.32951354	-0.23519980
1034	10.33000000	0.90068458	0.23981449	-0.13858207	-0.61818583	0.14424226	-0.66131520	-0.69079773	-0.33619911	-0.16244033	-0.81231787	-0.18435397	0.10307242	-0.52508183	0.58374610	0.23123393	-0.47792560	-0.04479782	0.33682673	-0.62184865	-0.06516097	-0.50977803	-0.71115801	-0.32815245	-0.23226524
1035	10.34000000	0.89904317	0.23632686	-0.13803381	-0.61847067	0.13301890	-0.66304726	-0.70430655	-0.31597577	-0.16375204	-0.81097462	-0.19048675	0.10747660	-0.52274604	0.58609401	0.23266791	-0.47294973	-0.03613370	0.34037193	-0.60786958	-0.05640520	-0.52788979	-0.71671028	-0.33341143	-0.22476753
1036	10.35000000	0.90470762	0.23551007	-0.14251425	-0.62287622	0.13252260	-0.66368856	-0.71187763	-0.29024206	-0.16454453	-0.80922798	-0.20090162	0.10869055	-0.50919880	0.59077301	0.23119943	-0.47456829	-0.02786552	0.34029495	-0.59020049	-0.05833762	-0.54584027	-0.72064708	-0.32789786	-0.21494965
1037	10.36000000	0.90230768	0.23411669	-0.13910605	-0.61744620	0.12987909	-0.66308814	-0.71293710	-0.27861866	-0.16312103	-0.80683894	-0.20274117	0.11843382	-0.50961773	0.59813199	0.23381808	-0.47436215	-0.01668438	0.34042463	-0.58607982	-0.04930088	-0.55260062	-0.72016847	-0.32874216	-0.20182443
1038	10.37000000	0.90241104	0.23003175	-0.14008172	-0.61951684	0.12845474	-0.66547758	-0.71037940	-0.27449656	-0.16075604	-0.80660968	-0.20240965	0.11350473	-0.50495947	0.60238976	0.22055683	-0.46783462	-0.01241811	0.33874872	-0.58244365	-0.04756000	-0.55254105	-0.72307715	-0.32580261	-0.20379617
1039	10.38000000	0.90797192	0.22733355	-0.13831001	-0.62327497	0.12977117	-0.66329695	-0.71615256	-0.27262511	-0.15889098	-0.80658395	-0.20097777	0.11532819	-0.50014083	0.61036311	0.22599089	-0.46520293	-0.01364648	0.33496059	-0.58208144	-0.04405834	-0.55572934	-0.71851571	-0.32263602	-0.19213518
1040	10.39000000	0.90269846	0.22764022	-0.13970808	-0.62063613	0.12164647	-0.66604068	-0.71303160	-0.28350313	-0.15415922	-0.80690053	-0.19851801	0.12124229	-0.49270959	0.61947614	0.22251437	-0.45962482	-0.00355873	0.34383182	-0.58090909	-0.04614505	-0.55877827	-0.72598875	-0.32261707	-0.18687294
